<svg id="Layer_1" data-name="Layer 1" xmlns="http://www.w3.org/2000/svg" xmlns:xlink="http://www.w3.org/1999/xlink" viewBox="0 0 56 56"><defs><style>.cls-1,.cls-2{fill:#e2dbca;}.cls-1,.cls-5{stroke:#888989;}.cls-1,.cls-5,.cls-6{stroke-miterlimit:10;stroke-width:2px;}.cls-3{clip-path:url(#clip-path);}.cls-4{fill:#d8aa8b;}.cls-5,.cls-6{fill:none;}.cls-6{stroke:#e2dbca;}.cls-7{fill:#dfdace;}</style><clipPath id="clip-path"><circle class="cls-1" cx="28" cy="28" r="27"/></clipPath></defs><title>orange2</title><circle class="cls-2" cx="28" cy="28" r="27"/><g class="cls-3"><circle class="cls-4" cx="28" cy="28" r="23"/></g><circle class="cls-5" cx="28" cy="28" r="27"/><line class="cls-6" x1="28" y1="53" x2="28" y2="4"/><line class="cls-6" x1="3.5" y1="29" x2="52.5" y2="29"/><line class="cls-6" x1="10.85" y1="45.82" x2="45.5" y2="11.18"/><line class="cls-6" x1="10.5" y1="11.53" x2="45.15" y2="46.18"/><path class="cls-7" d="M24,12.5c0,1.38-2,3.5-2,3.5s-2-2.12-2-3.5A2.29,2.29,0,0,1,22,10,2.29,2.29,0,0,1,24,12.5Z"/><path class="cls-7" d="M36,12.5c0,1.38-2,3.5-2,3.5s-2-2.12-2-3.5A2.29,2.29,0,0,1,34,10,2.29,2.29,0,0,1,36,12.5Z"/><path class="cls-7" d="M24,43.5A2.29,2.29,0,0,1,22,46a2.29,2.29,0,0,1-2-2.5c0-1.38,2-3.5,2-3.5S24,42.12,24,43.5Z"/><path class="cls-7" d="M36,43.5A2.29,2.29,0,0,1,34,46a2.29,2.29,0,0,1-2-2.5c0-1.38,2-3.5,2-3.5S36,42.12,36,43.5Z"/><path class="cls-7" d="M12.5,36A2.29,2.29,0,0,1,10,34a2.29,2.29,0,0,1,2.5-2c1.38,0,3.5,2,3.5,2S13.88,36,12.5,36Z"/></svg>